<svg width="521" height="457" viewBox="0 0 521 457" fill="none" xmlns="http://www.w3.org/2000/svg">
<path d="M261 389C343.843 389 411 321.843 411 239C411 156.157 343.843 89 261 89C178.157 89 111 156.157 111 239C111 321.843 178.157 389 261 389Z" fill="#E2CD5E" stroke="url(#paint0_radial_29_57)" stroke-width="12"/>
<g filter="url(#filter0_d_29_57)">
<path d="M209.682 318V292L226.37 276.4L233.67 283.018V318H209.682Z" fill="#04A360"/>
<path d="M181 298.618L226.37 256.545L240.971 268.836L281.126 233.382L294.163 243.782L343.705 198.4L336.404 191.309L363 188L358.828 209.745L352.049 204.545L295.728 257.491L281.126 247.091L240.971 283.018L226.37 271.2L188.822 305.236L181 298.618Z" fill="#04A360"/>
<path d="M299.378 318V259.382L323.888 238.109V318H299.378Z" fill="#04A360"/>
<path d="M269.653 263.636L281.126 253.709C281.126 253.709 288.948 259.855 290.513 261.273C292.077 262.691 294.163 263.636 294.163 263.636V318H269.653V263.636Z" fill="#04A360"/>
<path d="M239.407 287.273C239.407 287.273 240.971 288.218 243.057 287.273C245.143 286.327 263.917 268.836 263.917 268.836V318H239.407V287.273Z" fill="#04A360"/>
<path d="M209.682 318V292L226.37 276.4L233.67 283.018V318H209.682Z" stroke="black"/>
<path d="M181 298.618L226.37 256.545L240.971 268.836L281.126 233.382L294.163 243.782L343.705 198.4L336.404 191.309L363 188L358.828 209.745L352.049 204.545L295.728 257.491L281.126 247.091L240.971 283.018L226.37 271.2L188.822 305.236L181 298.618Z" stroke="black"/>
<path d="M299.378 318V259.382L323.888 238.109V318H299.378Z" stroke="black"/>
<path d="M269.653 263.636L281.126 253.709C281.126 253.709 288.948 259.855 290.513 261.273C292.077 262.691 294.163 263.636 294.163 263.636V318H269.653V263.636Z" stroke="black"/>
<path d="M239.407 287.273C239.407 287.273 240.971 288.218 243.057 287.273C245.143 286.327 263.917 268.836 263.917 268.836V318H239.407V287.273Z" stroke="black"/>
</g>
<g filter="url(#filter1_d_29_57)">
<path d="M231.352 339.278V342.54H234.908V343.59H231.352V346.95H235.328V348H230.078V338.228H235.328V339.278H231.352ZM240.35 348.098C239.706 348.098 239.127 347.986 238.614 347.762C238.11 347.529 237.713 347.211 237.424 346.81C237.134 346.399 236.985 345.928 236.976 345.396H238.334C238.38 345.853 238.567 346.241 238.894 346.558C239.23 346.866 239.715 347.02 240.35 347.02C240.956 347.02 241.432 346.871 241.778 346.572C242.132 346.264 242.31 345.872 242.31 345.396C242.31 345.023 242.207 344.719 242.002 344.486C241.796 344.253 241.54 344.075 241.232 343.954C240.924 343.833 240.508 343.702 239.986 343.562C239.342 343.394 238.824 343.226 238.432 343.058C238.049 342.89 237.718 342.629 237.438 342.274C237.167 341.91 237.032 341.425 237.032 340.818C237.032 340.286 237.167 339.815 237.438 339.404C237.708 338.993 238.086 338.676 238.572 338.452C239.066 338.228 239.631 338.116 240.266 338.116C241.18 338.116 241.927 338.345 242.506 338.802C243.094 339.259 243.425 339.866 243.5 340.622H242.1C242.053 340.249 241.857 339.922 241.512 339.642C241.166 339.353 240.709 339.208 240.14 339.208C239.608 339.208 239.174 339.348 238.838 339.628C238.502 339.899 238.334 340.281 238.334 340.776C238.334 341.131 238.432 341.42 238.628 341.644C238.833 341.868 239.08 342.041 239.37 342.162C239.668 342.274 240.084 342.405 240.616 342.554C241.26 342.731 241.778 342.909 242.17 343.086C242.562 343.254 242.898 343.52 243.178 343.884C243.458 344.239 243.598 344.724 243.598 345.34C243.598 345.816 243.472 346.264 243.22 346.684C242.968 347.104 242.594 347.445 242.1 347.706C241.605 347.967 241.022 348.098 240.35 348.098ZM251.479 338.242V339.278H248.819V348H247.545V339.278H244.871V338.242H251.479ZM256.085 338.242C257.149 338.242 258.068 338.443 258.843 338.844C259.627 339.236 260.224 339.801 260.635 340.538C261.055 341.275 261.265 342.143 261.265 343.142C261.265 344.141 261.055 345.009 260.635 345.746C260.224 346.474 259.627 347.034 258.843 347.426C258.068 347.809 257.149 348 256.085 348H253.047V338.242H256.085ZM256.085 346.95C257.345 346.95 258.306 346.619 258.969 345.956C259.631 345.284 259.963 344.346 259.963 343.142C259.963 341.929 259.627 340.981 258.955 340.3C258.292 339.619 257.335 339.278 256.085 339.278H254.321V346.95H256.085ZM266.314 346.978C267.499 346.026 268.428 345.247 269.1 344.64C269.772 344.024 270.336 343.385 270.794 342.722C271.26 342.05 271.494 341.392 271.494 340.748C271.494 340.141 271.344 339.665 271.046 339.32C270.756 338.965 270.285 338.788 269.632 338.788C268.997 338.788 268.502 338.989 268.148 339.39C267.802 339.782 267.616 340.309 267.588 340.972H266.356C266.393 339.927 266.71 339.119 267.308 338.55C267.905 337.981 268.675 337.696 269.618 337.696C270.579 337.696 271.34 337.962 271.9 338.494C272.469 339.026 272.754 339.759 272.754 340.692C272.754 341.467 272.52 342.223 272.054 342.96C271.596 343.688 271.074 344.332 270.486 344.892C269.898 345.443 269.146 346.087 268.232 346.824H273.048V347.888H266.314V346.978ZM274.52 342.834C274.52 341.229 274.782 339.978 275.304 339.082C275.827 338.177 276.742 337.724 278.048 337.724C279.346 337.724 280.256 338.177 280.778 339.082C281.301 339.978 281.562 341.229 281.562 342.834C281.562 344.467 281.301 345.737 280.778 346.642C280.256 347.547 279.346 348 278.048 348C276.742 348 275.827 347.547 275.304 346.642C274.782 345.737 274.52 344.467 274.52 342.834ZM280.302 342.834C280.302 342.022 280.246 341.336 280.134 340.776C280.032 340.207 279.812 339.749 279.476 339.404C279.15 339.059 278.674 338.886 278.048 338.886C277.414 338.886 276.928 339.059 276.592 339.404C276.266 339.749 276.046 340.207 275.934 340.776C275.832 341.336 275.78 342.022 275.78 342.834C275.78 343.674 275.832 344.379 275.934 344.948C276.046 345.517 276.266 345.975 276.592 346.32C276.928 346.665 277.414 346.838 278.048 346.838C278.674 346.838 279.15 346.665 279.476 346.32C279.812 345.975 280.032 345.517 280.134 344.948C280.246 344.379 280.302 343.674 280.302 342.834ZM289.541 338.872L285.649 348H284.361L288.309 338.998H282.905V337.906H289.541V338.872ZM292.802 342.736C292.279 342.531 291.878 342.232 291.598 341.84C291.318 341.448 291.178 340.972 291.178 340.412C291.178 339.908 291.304 339.455 291.556 339.054C291.808 338.643 292.181 338.321 292.676 338.088C293.18 337.845 293.787 337.724 294.496 337.724C295.205 337.724 295.807 337.845 296.302 338.088C296.806 338.321 297.184 338.643 297.436 339.054C297.697 339.455 297.828 339.908 297.828 340.412C297.828 340.953 297.683 341.429 297.394 341.84C297.105 342.241 296.708 342.54 296.204 342.736C296.783 342.913 297.24 343.226 297.576 343.674C297.921 344.113 298.094 344.645 298.094 345.27C298.094 345.877 297.945 346.409 297.646 346.866C297.347 347.314 296.923 347.664 296.372 347.916C295.831 348.159 295.205 348.28 294.496 348.28C293.787 348.28 293.161 348.159 292.62 347.916C292.088 347.664 291.673 347.314 291.374 346.866C291.075 346.409 290.926 345.877 290.926 345.27C290.926 344.645 291.094 344.108 291.43 343.66C291.766 343.212 292.223 342.904 292.802 342.736ZM296.596 340.566C296.596 339.997 296.409 339.558 296.036 339.25C295.663 338.942 295.149 338.788 294.496 338.788C293.852 338.788 293.343 338.942 292.97 339.25C292.597 339.558 292.41 340.001 292.41 340.58C292.41 341.103 292.601 341.523 292.984 341.84C293.376 342.157 293.88 342.316 294.496 342.316C295.121 342.316 295.625 342.157 296.008 341.84C296.4 341.513 296.596 341.089 296.596 340.566ZM294.496 343.296C293.805 343.296 293.241 343.459 292.802 343.786C292.363 344.103 292.144 344.584 292.144 345.228C292.144 345.825 292.354 346.306 292.774 346.67C293.203 347.034 293.777 347.216 294.496 347.216C295.215 347.216 295.784 347.034 296.204 346.67C296.624 346.306 296.834 345.825 296.834 345.228C296.834 344.603 296.619 344.127 296.19 343.8C295.761 343.464 295.196 343.296 294.496 343.296Z" fill="#010101"/>
</g>
<g filter="url(#filter2_d_29_57)">
<path d="M230.352 338.278V341.54H233.908V342.59H230.352V345.95H234.328V347H229.078V337.228H234.328V338.278H230.352ZM239.35 347.098C238.706 347.098 238.127 346.986 237.614 346.762C237.11 346.529 236.713 346.211 236.424 345.81C236.134 345.399 235.985 344.928 235.976 344.396H237.334C237.38 344.853 237.567 345.241 237.894 345.558C238.23 345.866 238.715 346.02 239.35 346.02C239.956 346.02 240.432 345.871 240.778 345.572C241.132 345.264 241.31 344.872 241.31 344.396C241.31 344.023 241.207 343.719 241.002 343.486C240.796 343.253 240.54 343.075 240.232 342.954C239.924 342.833 239.508 342.702 238.986 342.562C238.342 342.394 237.824 342.226 237.432 342.058C237.049 341.89 236.718 341.629 236.438 341.274C236.167 340.91 236.032 340.425 236.032 339.818C236.032 339.286 236.167 338.815 236.438 338.404C236.708 337.993 237.086 337.676 237.572 337.452C238.066 337.228 238.631 337.116 239.266 337.116C240.18 337.116 240.927 337.345 241.506 337.802C242.094 338.259 242.425 338.866 242.5 339.622H241.1C241.053 339.249 240.857 338.922 240.512 338.642C240.166 338.353 239.709 338.208 239.14 338.208C238.608 338.208 238.174 338.348 237.838 338.628C237.502 338.899 237.334 339.281 237.334 339.776C237.334 340.131 237.432 340.42 237.628 340.644C237.833 340.868 238.08 341.041 238.37 341.162C238.668 341.274 239.084 341.405 239.616 341.554C240.26 341.731 240.778 341.909 241.17 342.086C241.562 342.254 241.898 342.52 242.178 342.884C242.458 343.239 242.598 343.724 242.598 344.34C242.598 344.816 242.472 345.264 242.22 345.684C241.968 346.104 241.594 346.445 241.1 346.706C240.605 346.967 240.022 347.098 239.35 347.098ZM250.479 337.242V338.278H247.819V347H246.545V338.278H243.871V337.242H250.479ZM255.085 337.242C256.149 337.242 257.068 337.443 257.843 337.844C258.627 338.236 259.224 338.801 259.635 339.538C260.055 340.275 260.265 341.143 260.265 342.142C260.265 343.141 260.055 344.009 259.635 344.746C259.224 345.474 258.627 346.034 257.843 346.426C257.068 346.809 256.149 347 255.085 347H252.047V337.242H255.085ZM255.085 345.95C256.345 345.95 257.306 345.619 257.969 344.956C258.631 344.284 258.963 343.346 258.963 342.142C258.963 340.929 258.627 339.981 257.955 339.3C257.292 338.619 256.335 338.278 255.085 338.278H253.321V345.95H255.085ZM265.314 345.978C266.499 345.026 267.428 344.247 268.1 343.64C268.772 343.024 269.336 342.385 269.794 341.722C270.26 341.05 270.494 340.392 270.494 339.748C270.494 339.141 270.344 338.665 270.046 338.32C269.756 337.965 269.285 337.788 268.632 337.788C267.997 337.788 267.502 337.989 267.148 338.39C266.802 338.782 266.616 339.309 266.588 339.972H265.356C265.393 338.927 265.71 338.119 266.308 337.55C266.905 336.981 267.675 336.696 268.618 336.696C269.579 336.696 270.34 336.962 270.9 337.494C271.469 338.026 271.754 338.759 271.754 339.692C271.754 340.467 271.52 341.223 271.054 341.96C270.596 342.688 270.074 343.332 269.486 343.892C268.898 344.443 268.146 345.087 267.232 345.824H272.048V346.888H265.314V345.978ZM273.52 341.834C273.52 340.229 273.782 338.978 274.304 338.082C274.827 337.177 275.742 336.724 277.048 336.724C278.346 336.724 279.256 337.177 279.778 338.082C280.301 338.978 280.562 340.229 280.562 341.834C280.562 343.467 280.301 344.737 279.778 345.642C279.256 346.547 278.346 347 277.048 347C275.742 347 274.827 346.547 274.304 345.642C273.782 344.737 273.52 343.467 273.52 341.834ZM279.302 341.834C279.302 341.022 279.246 340.336 279.134 339.776C279.032 339.207 278.812 338.749 278.476 338.404C278.15 338.059 277.674 337.886 277.048 337.886C276.414 337.886 275.928 338.059 275.592 338.404C275.266 338.749 275.046 339.207 274.934 339.776C274.832 340.336 274.78 341.022 274.78 341.834C274.78 342.674 274.832 343.379 274.934 343.948C275.046 344.517 275.266 344.975 275.592 345.32C275.928 345.665 276.414 345.838 277.048 345.838C277.674 345.838 278.15 345.665 278.476 345.32C278.812 344.975 279.032 344.517 279.134 343.948C279.246 343.379 279.302 342.674 279.302 341.834ZM288.541 337.872L284.649 347H283.361L287.309 337.998H281.905V336.906H288.541V337.872ZM291.802 341.736C291.279 341.531 290.878 341.232 290.598 340.84C290.318 340.448 290.178 339.972 290.178 339.412C290.178 338.908 290.304 338.455 290.556 338.054C290.808 337.643 291.181 337.321 291.676 337.088C292.18 336.845 292.787 336.724 293.496 336.724C294.205 336.724 294.807 336.845 295.302 337.088C295.806 337.321 296.184 337.643 296.436 338.054C296.697 338.455 296.828 338.908 296.828 339.412C296.828 339.953 296.683 340.429 296.394 340.84C296.105 341.241 295.708 341.54 295.204 341.736C295.783 341.913 296.24 342.226 296.576 342.674C296.921 343.113 297.094 343.645 297.094 344.27C297.094 344.877 296.945 345.409 296.646 345.866C296.347 346.314 295.923 346.664 295.372 346.916C294.831 347.159 294.205 347.28 293.496 347.28C292.787 347.28 292.161 347.159 291.62 346.916C291.088 346.664 290.673 346.314 290.374 345.866C290.075 345.409 289.926 344.877 289.926 344.27C289.926 343.645 290.094 343.108 290.43 342.66C290.766 342.212 291.223 341.904 291.802 341.736ZM295.596 339.566C295.596 338.997 295.409 338.558 295.036 338.25C294.663 337.942 294.149 337.788 293.496 337.788C292.852 337.788 292.343 337.942 291.97 338.25C291.597 338.558 291.41 339.001 291.41 339.58C291.41 340.103 291.601 340.523 291.984 340.84C292.376 341.157 292.88 341.316 293.496 341.316C294.121 341.316 294.625 341.157 295.008 340.84C295.4 340.513 295.596 340.089 295.596 339.566ZM293.496 342.296C292.805 342.296 292.241 342.459 291.802 342.786C291.363 343.103 291.144 343.584 291.144 344.228C291.144 344.825 291.354 345.306 291.774 345.67C292.203 346.034 292.777 346.216 293.496 346.216C294.215 346.216 294.784 346.034 295.204 345.67C295.624 345.306 295.834 344.825 295.834 344.228C295.834 343.603 295.619 343.127 295.19 342.8C294.761 342.464 294.196 342.296 293.496 342.296Z" fill="#5D3E02"/>
</g>
<circle cx="260.5" cy="106.5" r="5.5" fill="url(#paint1_radial_29_57)"/>
<circle cx="260.5" cy="370.5" r="5.5" fill="url(#paint2_radial_29_57)"/>
<circle cx="391.516" cy="237.517" r="5.5" transform="rotate(89.8251 391.516 237.517)" fill="url(#paint3_radial_29_57)"/>
<circle cx="127.517" cy="238.323" r="5.5" transform="rotate(89.8251 127.517 238.323)" fill="url(#paint4_radial_29_57)"/>
<circle cx="236.995" cy="108.432" r="5.5" transform="rotate(-10.2504 236.995 108.432)" fill="url(#paint5_radial_29_57)"/>
<circle cx="283.974" cy="368.218" r="5.5" transform="rotate(-10.2504 283.974 368.218)" fill="url(#paint6_radial_29_57)"/>
<circle cx="389.234" cy="214.043" r="5.5" transform="rotate(79.5747 389.234 214.043)" fill="url(#paint7_radial_29_57)"/>
<circle cx="129.592" cy="261.815" r="5.5" transform="rotate(79.5747 129.592 261.815)" fill="url(#paint8_radial_29_57)"/>
<circle cx="283.636" cy="108.719" r="5.5" transform="rotate(10.1014 283.636 108.719)" fill="url(#paint9_radial_29_57)"/>
<circle cx="237.333" cy="368.626" r="5.5" transform="rotate(10.1014 237.333 368.626)" fill="url(#paint10_radial_29_57)"/>
<circle cx="389.642" cy="260.683" r="5.5" transform="rotate(99.9265 389.642 260.683)" fill="url(#paint11_radial_29_57)"/>
<circle cx="129.594" cy="215.174" r="5.5" transform="rotate(99.9265 129.594 215.174)" fill="url(#paint12_radial_29_57)"/>
<circle cx="304.968" cy="114.568" r="5.5" transform="rotate(19.7132 304.968 114.568)" fill="url(#paint13_radial_29_57)"/>
<circle cx="215.917" cy="363.096" r="5.5" transform="rotate(19.7132 215.917 363.096)" fill="url(#paint14_radial_29_57)"/>
<circle cx="384.111" cy="282.1" r="5.5" transform="rotate(109.538 384.111 282.1)" fill="url(#paint15_radial_29_57)"/>
<circle cx="135.313" cy="193.808" r="5.5" transform="rotate(109.538 135.313 193.808)" fill="url(#paint16_radial_29_57)"/>
<circle cx="326" cy="124.461" r="5.5" transform="rotate(29.8146 326 124.461)" fill="url(#paint17_radial_29_57)"/>
<circle cx="194.74" cy="353.518" r="5.5" transform="rotate(29.8146 194.74 353.518)" fill="url(#paint18_radial_29_57)"/>
<circle cx="374.533" cy="303.276" r="5.5" transform="rotate(119.64 374.533 303.276)" fill="url(#paint19_radial_29_57)"/>
<circle cx="145.077" cy="172.717" r="5.5" transform="rotate(119.64 145.077 172.717)" fill="url(#paint20_radial_29_57)"/>
<circle cx="345.938" cy="138.719" r="5.5" transform="rotate(40.4691 345.938 138.719)" fill="url(#paint21_radial_29_57)"/>
<circle cx="174.592" cy="339.558" r="5.5" transform="rotate(40.4691 174.592 339.558)" fill="url(#paint22_radial_29_57)"/>
<circle cx="360.574" cy="323.425" r="5.5" transform="rotate(130.294 360.574 323.425)" fill="url(#paint23_radial_29_57)"/>
<circle cx="159.212" cy="152.692" r="5.5" transform="rotate(130.294 159.212 152.692)" fill="url(#paint24_radial_29_57)"/>
<circle cx="362.099" cy="155.423" r="5.5" transform="rotate(50.5705 362.099 155.423)" fill="url(#paint25_radial_29_57)"/>
<circle cx="158.183" cy="323.097" r="5.5" transform="rotate(50.5705 158.183 323.097)" fill="url(#paint26_radial_29_57)"/>
<circle cx="344.112" cy="339.833" r="5.5" transform="rotate(140.396 344.112 339.833)" fill="url(#paint27_radial_29_57)"/>
<circle cx="175.817" cy="136.43" r="5.5" transform="rotate(140.396 175.817 136.43)" fill="url(#paint28_radial_29_57)"/>
<circle cx="374.53" cy="173.718" r="5.5" transform="rotate(60.1824 374.53 173.718)" fill="url(#paint29_radial_29_57)"/>
<circle cx="145.48" cy="304.989" r="5.5" transform="rotate(60.1824 145.48 304.989)" fill="url(#paint30_radial_29_57)"/>
<circle cx="326.005" cy="352.535" r="5.5" transform="rotate(150.007 326.005 352.535)" fill="url(#paint31_radial_29_57)"/>
<circle cx="194.035" cy="123.887" r="5.5" transform="rotate(150.007 194.035 123.887)" fill="url(#paint32_radial_29_57)"/>
<circle cx="384.11" cy="194.894" r="5.5" transform="rotate(70.2838 384.11 194.894)" fill="url(#paint33_radial_29_57)"/>
<circle cx="135.587" cy="283.958" r="5.5" transform="rotate(70.2838 135.587 283.958)" fill="url(#paint34_radial_29_57)"/>
<circle cx="304.973" cy="362.429" r="5.5" transform="rotate(160.109 304.973 362.429)" fill="url(#paint35_radial_29_57)"/>
<circle cx="215.152" cy="114.179" r="5.5" transform="rotate(160.109 215.152 114.179)" fill="url(#paint36_radial_29_57)"/>
<path d="M229.28 184.768H224.576V214H216.992V197.872H210.8V200.128C210.8 203.552 209.904 206.24 208.112 208.192C206.352 210.112 203.792 211.072 200.432 211.072C198.352 211.072 196.512 210.672 194.912 209.872C193.312 209.072 192.08 207.936 191.216 206.464C190.352 204.992 189.92 203.28 189.92 201.328C189.92 198.192 190.928 195.808 192.944 194.176C194.992 192.544 197.584 191.728 200.72 191.728H203.792V184.768H187.184V178.48H229.28V184.768ZM216.992 184.768H210.8V191.728H216.992V184.768ZM203.792 197.872H200.912C199.728 197.872 198.768 198.176 198.032 198.784C197.296 199.392 196.928 200.24 196.928 201.328C196.928 202.384 197.232 203.216 197.84 203.824C198.48 204.4 199.296 204.688 200.288 204.688C201.408 204.688 202.272 204.32 202.88 203.584C203.488 202.816 203.792 201.792 203.792 200.512V197.872ZM228.885 221.104C228.885 223.952 227.941 226.192 226.053 227.824C224.133 229.488 221.557 230.32 218.325 230.32C216.085 230.32 214.021 229.936 212.133 229.168C210.245 228.432 208.725 227.232 207.573 225.568C206.421 223.904 205.861 221.76 205.893 219.136H212.565C212.533 220.928 213.029 222.256 214.053 223.12C215.045 223.984 216.405 224.416 218.133 224.416C219.509 224.416 220.581 224.112 221.349 223.504C222.117 222.928 222.501 222.096 222.501 221.008C222.501 220.08 222.181 219.312 221.541 218.704C220.869 218.096 219.925 217.792 218.709 217.792H217.029V211.936H218.709C222.037 211.936 224.565 212.736 226.293 214.336C228.021 215.968 228.885 218.224 228.885 221.104ZM255.765 164.272C263.893 164.272 269.893 165.632 273.765 168.352C277.669 171.072 279.621 174.848 279.621 179.68V180.496H272.229V179.872C272.229 176.672 270.869 174.304 268.149 172.768C265.429 171.2 261.253 170.416 255.621 170.416C250.309 170.416 246.405 171.072 243.909 172.384C241.413 173.664 240.069 175.696 239.877 178.48H244.581V184.768H239.877V214H232.341V184.768H227.637V178.48H232.341C232.789 169.008 240.597 164.272 255.765 164.272ZM284.101 184.768H279.397V214H271.813V196.48H265.765C266.597 197.984 267.013 199.632 267.013 201.424C267.013 203.376 266.549 205.056 265.621 206.464C264.725 207.872 263.509 208.928 261.973 209.632C260.469 210.336 258.789 210.688 256.933 210.688C255.013 210.688 253.221 210.288 251.557 209.488C249.925 208.656 248.613 207.472 247.621 205.936C246.629 204.368 246.133 202.544 246.133 200.464C246.133 198.256 246.645 196.384 247.669 194.848C248.693 193.28 250.069 192.112 251.797 191.344C253.525 190.576 255.445 190.192 257.557 190.192H271.813V184.768H242.965V178.48H284.101V184.768ZM257.029 204.304C258.213 204.304 259.173 203.952 259.909 203.248C260.645 202.512 261.013 201.568 261.013 200.416C261.013 199.264 260.645 198.32 259.909 197.584C259.173 196.848 258.213 196.48 257.029 196.48C255.845 196.48 254.869 196.848 254.101 197.584C253.333 198.32 252.949 199.264 252.949 200.416C252.949 201.568 253.317 202.512 254.053 203.248C254.821 203.952 255.813 204.304 257.029 204.304ZM324.577 184.768H319.873V214H312.289V197.872H306.097V200.128C306.097 203.552 305.201 206.24 303.409 208.192C301.649 210.112 299.089 211.072 295.729 211.072C293.649 211.072 291.809 210.672 290.209 209.872C288.609 209.072 287.377 207.936 286.513 206.464C285.649 204.992 285.217 203.28 285.217 201.328C285.217 198.192 286.225 195.808 288.241 194.176C290.289 192.544 292.881 191.728 296.017 191.728H299.089V184.768H282.481V178.48H324.577V184.768ZM312.289 184.768H306.097V191.728H312.289V184.768ZM299.089 197.872H296.209C295.025 197.872 294.065 198.176 293.329 198.784C292.593 199.392 292.225 200.24 292.225 201.328C292.225 202.384 292.529 203.216 293.137 203.824C293.777 204.4 294.593 204.688 295.585 204.688C296.705 204.688 297.569 204.32 298.177 203.584C298.785 202.816 299.089 201.792 299.089 200.512V197.872Z" fill="black"/>
<path d="M227.28 182.768H222.576V212H214.992V195.872H208.8V198.128C208.8 201.552 207.904 204.24 206.112 206.192C204.352 208.112 201.792 209.072 198.432 209.072C196.352 209.072 194.512 208.672 192.912 207.872C191.312 207.072 190.08 205.936 189.216 204.464C188.352 202.992 187.92 201.28 187.92 199.328C187.92 196.192 188.928 193.808 190.944 192.176C192.992 190.544 195.584 189.728 198.72 189.728H201.792V182.768H185.184V176.48H227.28V182.768ZM214.992 182.768H208.8V189.728H214.992V182.768ZM201.792 195.872H198.912C197.728 195.872 196.768 196.176 196.032 196.784C195.296 197.392 194.928 198.24 194.928 199.328C194.928 200.384 195.232 201.216 195.84 201.824C196.48 202.4 197.296 202.688 198.288 202.688C199.408 202.688 200.272 202.32 200.88 201.584C201.488 200.816 201.792 199.792 201.792 198.512V195.872ZM226.885 219.104C226.885 221.952 225.941 224.192 224.053 225.824C222.133 227.488 219.557 228.32 216.325 228.32C214.085 228.32 212.021 227.936 210.133 227.168C208.245 226.432 206.725 225.232 205.573 223.568C204.421 221.904 203.861 219.76 203.893 217.136H210.565C210.533 218.928 211.029 220.256 212.053 221.12C213.045 221.984 214.405 222.416 216.133 222.416C217.509 222.416 218.581 222.112 219.349 221.504C220.117 220.928 220.501 220.096 220.501 219.008C220.501 218.08 220.181 217.312 219.541 216.704C218.869 216.096 217.925 215.792 216.709 215.792H215.029V209.936H216.709C220.037 209.936 222.565 210.736 224.293 212.336C226.021 213.968 226.885 216.224 226.885 219.104ZM253.765 162.272C261.893 162.272 267.893 163.632 271.765 166.352C275.669 169.072 277.621 172.848 277.621 177.68V178.496H270.229V177.872C270.229 174.672 268.869 172.304 266.149 170.768C263.429 169.2 259.253 168.416 253.621 168.416C248.309 168.416 244.405 169.072 241.909 170.384C239.413 171.664 238.069 173.696 237.877 176.48H242.581V182.768H237.877V212H230.341V182.768H225.637V176.48H230.341C230.789 167.008 238.597 162.272 253.765 162.272ZM282.101 182.768H277.397V212H269.813V194.48H263.765C264.597 195.984 265.013 197.632 265.013 199.424C265.013 201.376 264.549 203.056 263.621 204.464C262.725 205.872 261.509 206.928 259.973 207.632C258.469 208.336 256.789 208.688 254.933 208.688C253.013 208.688 251.221 208.288 249.557 207.488C247.925 206.656 246.613 205.472 245.621 203.936C244.629 202.368 244.133 200.544 244.133 198.464C244.133 196.256 244.645 194.384 245.669 192.848C246.693 191.28 248.069 190.112 249.797 189.344C251.525 188.576 253.445 188.192 255.557 188.192H269.813V182.768H240.965V176.48H282.101V182.768ZM255.029 202.304C256.213 202.304 257.173 201.952 257.909 201.248C258.645 200.512 259.013 199.568 259.013 198.416C259.013 197.264 258.645 196.32 257.909 195.584C257.173 194.848 256.213 194.48 255.029 194.48C253.845 194.48 252.869 194.848 252.101 195.584C251.333 196.32 250.949 197.264 250.949 198.416C250.949 199.568 251.317 200.512 252.053 201.248C252.821 201.952 253.813 202.304 255.029 202.304ZM322.577 182.768H317.873V212H310.289V195.872H304.097V198.128C304.097 201.552 303.201 204.24 301.409 206.192C299.649 208.112 297.089 209.072 293.729 209.072C291.649 209.072 289.809 208.672 288.209 207.872C286.609 207.072 285.377 205.936 284.513 204.464C283.649 202.992 283.217 201.28 283.217 199.328C283.217 196.192 284.225 193.808 286.241 192.176C288.289 190.544 290.881 189.728 294.017 189.728H297.089V182.768H280.481V176.48H322.577V182.768ZM310.289 182.768H304.097V189.728H310.289V182.768ZM297.089 195.872H294.209C293.025 195.872 292.065 196.176 291.329 196.784C290.593 197.392 290.225 198.24 290.225 199.328C290.225 200.384 290.529 201.216 291.137 201.824C291.777 202.4 292.593 202.688 293.585 202.688C294.705 202.688 295.569 202.32 296.177 201.584C296.785 200.816 297.089 199.792 297.089 198.512V195.872Z" fill="#CB8705"/>
<defs>
<filter id="filter0_d_29_57" x="176.246" y="187.419" width="191.374" height="139.081" filterUnits="userSpaceOnUse" color-interpolation-filters="sRGB">
<feFlood flood-opacity="0" result="BackgroundImageFix"/>
<feColorMatrix in="SourceAlpha" type="matrix" values="0 0 0 0 0 0 0 0 0 0 0 0 0 0 0 0 0 0 127 0" result="hardAlpha"/>
<feOffset dy="4"/>
<feGaussianBlur stdDeviation="2"/>
<feComposite in2="hardAlpha" operator="out"/>
<feColorMatrix type="matrix" values="0 0 0 0 0 0 0 0 0 0 0 0 0 0 0 0 0 0 0.25 0"/>
<feBlend mode="normal" in2="BackgroundImageFix" result="effect1_dropShadow_29_57"/>
<feBlend mode="normal" in="SourceGraphic" in2="effect1_dropShadow_29_57" result="shape"/>
</filter>
<filter id="filter1_d_29_57" x="226.078" y="337.696" width="76.0159" height="18.584" filterUnits="userSpaceOnUse" color-interpolation-filters="sRGB">
<feFlood flood-opacity="0" result="BackgroundImageFix"/>
<feColorMatrix in="SourceAlpha" type="matrix" values="0 0 0 0 0 0 0 0 0 0 0 0 0 0 0 0 0 0 127 0" result="hardAlpha"/>
<feOffset dy="4"/>
<feGaussianBlur stdDeviation="2"/>
<feComposite in2="hardAlpha" operator="out"/>
<feColorMatrix type="matrix" values="0 0 0 0 0 0 0 0 0 0 0 0 0 0 0 0 0 0 0.25 0"/>
<feBlend mode="normal" in2="BackgroundImageFix" result="effect1_dropShadow_29_57"/>
<feBlend mode="normal" in="SourceGraphic" in2="effect1_dropShadow_29_57" result="shape"/>
</filter>
<filter id="filter2_d_29_57" x="225.078" y="336.696" width="76.0159" height="18.584" filterUnits="userSpaceOnUse" color-interpolation-filters="sRGB">
<feFlood flood-opacity="0" result="BackgroundImageFix"/>
<feColorMatrix in="SourceAlpha" type="matrix" values="0 0 0 0 0 0 0 0 0 0 0 0 0 0 0 0 0 0 127 0" result="hardAlpha"/>
<feOffset dy="4"/>
<feGaussianBlur stdDeviation="2"/>
<feComposite in2="hardAlpha" operator="out"/>
<feColorMatrix type="matrix" values="0 0 0 0 0 0 0 0 0 0 0 0 0 0 0 0 0 0 0.25 0"/>
<feBlend mode="normal" in2="BackgroundImageFix" result="effect1_dropShadow_29_57"/>
<feBlend mode="normal" in="SourceGraphic" in2="effect1_dropShadow_29_57" result="shape"/>
</filter>
<radialGradient id="paint0_radial_29_57" cx="0" cy="0" r="1" gradientUnits="userSpaceOnUse" gradientTransform="translate(261 239) rotate(90) scale(150)">
<stop offset="0.958333" stop-color="#4A340A"/>
<stop offset="1" stop-color="#CB8705"/>
</radialGradient>
<radialGradient id="paint1_radial_29_57" cx="0" cy="0" r="1" gradientUnits="userSpaceOnUse" gradientTransform="translate(260.5 106.5) rotate(90) scale(5.5)">
<stop offset="0.45" stop-color="#CB8705"/>
<stop offset="1" stop-color="#654302"/>
</radialGradient>
<radialGradient id="paint2_radial_29_57" cx="0" cy="0" r="1" gradientUnits="userSpaceOnUse" gradientTransform="translate(260.5 370.5) rotate(90) scale(5.5)">
<stop offset="0.45" stop-color="#CB8705"/>
<stop offset="1" stop-color="#654302"/>
</radialGradient>
<radialGradient id="paint3_radial_29_57" cx="0" cy="0" r="1" gradientUnits="userSpaceOnUse" gradientTransform="translate(391.516 237.517) rotate(90) scale(5.5)">
<stop offset="0.45" stop-color="#CB8705"/>
<stop offset="1" stop-color="#654302"/>
</radialGradient>
<radialGradient id="paint4_radial_29_57" cx="0" cy="0" r="1" gradientUnits="userSpaceOnUse" gradientTransform="translate(127.517 238.323) rotate(90) scale(5.5)">
<stop offset="0.45" stop-color="#CB8705"/>
<stop offset="1" stop-color="#654302"/>
</radialGradient>
<radialGradient id="paint5_radial_29_57" cx="0" cy="0" r="1" gradientUnits="userSpaceOnUse" gradientTransform="translate(236.995 108.432) rotate(90) scale(5.5)">
<stop offset="0.45" stop-color="#CB8705"/>
<stop offset="1" stop-color="#654302"/>
</radialGradient>
<radialGradient id="paint6_radial_29_57" cx="0" cy="0" r="1" gradientUnits="userSpaceOnUse" gradientTransform="translate(283.974 368.218) rotate(90) scale(5.5)">
<stop offset="0.45" stop-color="#CB8705"/>
<stop offset="1" stop-color="#654302"/>
</radialGradient>
<radialGradient id="paint7_radial_29_57" cx="0" cy="0" r="1" gradientUnits="userSpaceOnUse" gradientTransform="translate(389.234 214.043) rotate(90) scale(5.5)">
<stop offset="0.45" stop-color="#CB8705"/>
<stop offset="1" stop-color="#654302"/>
</radialGradient>
<radialGradient id="paint8_radial_29_57" cx="0" cy="0" r="1" gradientUnits="userSpaceOnUse" gradientTransform="translate(129.592 261.815) rotate(90) scale(5.5)">
<stop offset="0.45" stop-color="#CB8705"/>
<stop offset="1" stop-color="#654302"/>
</radialGradient>
<radialGradient id="paint9_radial_29_57" cx="0" cy="0" r="1" gradientUnits="userSpaceOnUse" gradientTransform="translate(283.636 108.719) rotate(90) scale(5.5)">
<stop offset="0.45" stop-color="#CB8705"/>
<stop offset="1" stop-color="#654302"/>
</radialGradient>
<radialGradient id="paint10_radial_29_57" cx="0" cy="0" r="1" gradientUnits="userSpaceOnUse" gradientTransform="translate(237.333 368.626) rotate(90) scale(5.5)">
<stop offset="0.45" stop-color="#CB8705"/>
<stop offset="1" stop-color="#654302"/>
</radialGradient>
<radialGradient id="paint11_radial_29_57" cx="0" cy="0" r="1" gradientUnits="userSpaceOnUse" gradientTransform="translate(389.642 260.683) rotate(90) scale(5.5)">
<stop offset="0.45" stop-color="#CB8705"/>
<stop offset="1" stop-color="#654302"/>
</radialGradient>
<radialGradient id="paint12_radial_29_57" cx="0" cy="0" r="1" gradientUnits="userSpaceOnUse" gradientTransform="translate(129.594 215.174) rotate(90) scale(5.5)">
<stop offset="0.45" stop-color="#CB8705"/>
<stop offset="1" stop-color="#654302"/>
</radialGradient>
<radialGradient id="paint13_radial_29_57" cx="0" cy="0" r="1" gradientUnits="userSpaceOnUse" gradientTransform="translate(304.968 114.568) rotate(90) scale(5.5)">
<stop offset="0.45" stop-color="#CB8705"/>
<stop offset="1" stop-color="#654302"/>
</radialGradient>
<radialGradient id="paint14_radial_29_57" cx="0" cy="0" r="1" gradientUnits="userSpaceOnUse" gradientTransform="translate(215.917 363.096) rotate(90) scale(5.5)">
<stop offset="0.45" stop-color="#CB8705"/>
<stop offset="1" stop-color="#654302"/>
</radialGradient>
<radialGradient id="paint15_radial_29_57" cx="0" cy="0" r="1" gradientUnits="userSpaceOnUse" gradientTransform="translate(384.111 282.1) rotate(90) scale(5.5)">
<stop offset="0.45" stop-color="#CB8705"/>
<stop offset="1" stop-color="#654302"/>
</radialGradient>
<radialGradient id="paint16_radial_29_57" cx="0" cy="0" r="1" gradientUnits="userSpaceOnUse" gradientTransform="translate(135.313 193.808) rotate(90) scale(5.5)">
<stop offset="0.45" stop-color="#CB8705"/>
<stop offset="1" stop-color="#654302"/>
</radialGradient>
<radialGradient id="paint17_radial_29_57" cx="0" cy="0" r="1" gradientUnits="userSpaceOnUse" gradientTransform="translate(326 124.461) rotate(90) scale(5.5)">
<stop offset="0.45" stop-color="#CB8705"/>
<stop offset="1" stop-color="#654302"/>
</radialGradient>
<radialGradient id="paint18_radial_29_57" cx="0" cy="0" r="1" gradientUnits="userSpaceOnUse" gradientTransform="translate(194.74 353.518) rotate(90) scale(5.5)">
<stop offset="0.45" stop-color="#CB8705"/>
<stop offset="1" stop-color="#654302"/>
</radialGradient>
<radialGradient id="paint19_radial_29_57" cx="0" cy="0" r="1" gradientUnits="userSpaceOnUse" gradientTransform="translate(374.533 303.276) rotate(90) scale(5.5)">
<stop offset="0.45" stop-color="#CB8705"/>
<stop offset="1" stop-color="#654302"/>
</radialGradient>
<radialGradient id="paint20_radial_29_57" cx="0" cy="0" r="1" gradientUnits="userSpaceOnUse" gradientTransform="translate(145.077 172.717) rotate(90) scale(5.5)">
<stop offset="0.45" stop-color="#CB8705"/>
<stop offset="1" stop-color="#654302"/>
</radialGradient>
<radialGradient id="paint21_radial_29_57" cx="0" cy="0" r="1" gradientUnits="userSpaceOnUse" gradientTransform="translate(345.938 138.719) rotate(90) scale(5.5)">
<stop offset="0.45" stop-color="#CB8705"/>
<stop offset="1" stop-color="#654302"/>
</radialGradient>
<radialGradient id="paint22_radial_29_57" cx="0" cy="0" r="1" gradientUnits="userSpaceOnUse" gradientTransform="translate(174.592 339.558) rotate(90) scale(5.5)">
<stop offset="0.45" stop-color="#CB8705"/>
<stop offset="1" stop-color="#654302"/>
</radialGradient>
<radialGradient id="paint23_radial_29_57" cx="0" cy="0" r="1" gradientUnits="userSpaceOnUse" gradientTransform="translate(360.574 323.425) rotate(90) scale(5.5)">
<stop offset="0.45" stop-color="#CB8705"/>
<stop offset="1" stop-color="#654302"/>
</radialGradient>
<radialGradient id="paint24_radial_29_57" cx="0" cy="0" r="1" gradientUnits="userSpaceOnUse" gradientTransform="translate(159.212 152.692) rotate(90) scale(5.5)">
<stop offset="0.45" stop-color="#CB8705"/>
<stop offset="1" stop-color="#654302"/>
</radialGradient>
<radialGradient id="paint25_radial_29_57" cx="0" cy="0" r="1" gradientUnits="userSpaceOnUse" gradientTransform="translate(362.099 155.423) rotate(90) scale(5.5)">
<stop offset="0.45" stop-color="#CB8705"/>
<stop offset="1" stop-color="#654302"/>
</radialGradient>
<radialGradient id="paint26_radial_29_57" cx="0" cy="0" r="1" gradientUnits="userSpaceOnUse" gradientTransform="translate(158.183 323.097) rotate(90) scale(5.5)">
<stop offset="0.45" stop-color="#CB8705"/>
<stop offset="1" stop-color="#654302"/>
</radialGradient>
<radialGradient id="paint27_radial_29_57" cx="0" cy="0" r="1" gradientUnits="userSpaceOnUse" gradientTransform="translate(344.112 339.833) rotate(90) scale(5.5)">
<stop offset="0.45" stop-color="#CB8705"/>
<stop offset="1" stop-color="#654302"/>
</radialGradient>
<radialGradient id="paint28_radial_29_57" cx="0" cy="0" r="1" gradientUnits="userSpaceOnUse" gradientTransform="translate(175.817 136.43) rotate(90) scale(5.5)">
<stop offset="0.45" stop-color="#CB8705"/>
<stop offset="1" stop-color="#654302"/>
</radialGradient>
<radialGradient id="paint29_radial_29_57" cx="0" cy="0" r="1" gradientUnits="userSpaceOnUse" gradientTransform="translate(374.53 173.718) rotate(90) scale(5.5)">
<stop offset="0.45" stop-color="#CB8705"/>
<stop offset="1" stop-color="#654302"/>
</radialGradient>
<radialGradient id="paint30_radial_29_57" cx="0" cy="0" r="1" gradientUnits="userSpaceOnUse" gradientTransform="translate(145.48 304.989) rotate(90) scale(5.5)">
<stop offset="0.45" stop-color="#CB8705"/>
<stop offset="1" stop-color="#654302"/>
</radialGradient>
<radialGradient id="paint31_radial_29_57" cx="0" cy="0" r="1" gradientUnits="userSpaceOnUse" gradientTransform="translate(326.005 352.535) rotate(90) scale(5.5)">
<stop offset="0.45" stop-color="#CB8705"/>
<stop offset="1" stop-color="#654302"/>
</radialGradient>
<radialGradient id="paint32_radial_29_57" cx="0" cy="0" r="1" gradientUnits="userSpaceOnUse" gradientTransform="translate(194.035 123.887) rotate(90) scale(5.5)">
<stop offset="0.45" stop-color="#CB8705"/>
<stop offset="1" stop-color="#654302"/>
</radialGradient>
<radialGradient id="paint33_radial_29_57" cx="0" cy="0" r="1" gradientUnits="userSpaceOnUse" gradientTransform="translate(384.11 194.894) rotate(90) scale(5.5)">
<stop offset="0.45" stop-color="#CB8705"/>
<stop offset="1" stop-color="#654302"/>
</radialGradient>
<radialGradient id="paint34_radial_29_57" cx="0" cy="0" r="1" gradientUnits="userSpaceOnUse" gradientTransform="translate(135.587 283.958) rotate(90) scale(5.5)">
<stop offset="0.45" stop-color="#CB8705"/>
<stop offset="1" stop-color="#654302"/>
</radialGradient>
<radialGradient id="paint35_radial_29_57" cx="0" cy="0" r="1" gradientUnits="userSpaceOnUse" gradientTransform="translate(304.973 362.429) rotate(90) scale(5.5)">
<stop offset="0.45" stop-color="#CB8705"/>
<stop offset="1" stop-color="#654302"/>
</radialGradient>
<radialGradient id="paint36_radial_29_57" cx="0" cy="0" r="1" gradientUnits="userSpaceOnUse" gradientTransform="translate(215.152 114.179) rotate(90) scale(5.5)">
<stop offset="0.45" stop-color="#CB8705"/>
<stop offset="1" stop-color="#654302"/>
</radialGradient>
</defs>
</svg>
