<?xml version="1.0" standalone="no"?>
<!DOCTYPE svg PUBLIC "-//W3C//DTD SVG 20010904//EN"
 "http://www.w3.org/TR/2001/REC-SVG-20010904/DTD/svg10.dtd">
<svg version="1.0" xmlns="http://www.w3.org/2000/svg"
 width="521.000000pt" height="521.000000pt" viewBox="0 0 521.000000 521.000000"
 preserveAspectRatio="xMidYMid meet">
<metadata>
Created by potrace 1.14, written by Peter Selinger 2001-2017
</metadata>
<g transform="translate(0.000000,521.000000) scale(0.100000,-0.100000)"
fill="#000000" stroke="none">
<path d="M2469 4036 c-2 -2 -29 -6 -59 -10 -161 -18 -334 -72 -495 -153 -397
-199 -686 -562 -801 -1005 -51 -199 -55 -510 -9 -689 3 -14 7 -32 9 -40 14
-69 60 -205 98 -284 227 -481 656 -800 1184 -881 27 -5 130 -8 229 -8 145 1
199 5 280 22 269 58 488 162 680 322 287 240 457 524 535 891 26 120 35 378
19 494 -48 336 -186 625 -414 865 -69 73 -215 200 -230 200 -4 0 -24 13 -44
28 -20 15 -61 41 -91 57 -30 16 -68 36 -85 45 -16 9 -43 21 -60 27 -16 6 -61
23 -98 36 -60 23 -187 55 -287 73 -41 7 -354 16 -361 10z"/>
</g>
</svg>
